<mxfile host="app.diagrams.net" modified="2024-03-22T17:20:39.766Z" agent="Mozilla/5.0 (Windows NT 10.0; Win64; x64) AppleWebKit/537.36 (KHTML, like Gecko) Chrome/109.0.0.0 Safari/537.36" version="24.0.8" etag="Rb3cHnYjWxYrv1tbxkpr" type="github">
  <diagram name="PÃ¡gina-1" id="_5Tkz1i0w4q10IWFx6Ka">
    <mxGraphModel>
      <root>
        <mxCell id="0" />
        <mxCell id="1" parent="0" />
      </root>
    </mxGraphModel>
  </diagram>
</mxfile>
